<mxfile host="app.diagrams.net" modified="2024-04-27T18:10:36.477Z" agent="Mozilla/5.0 (Windows NT 10.0; Win64; x64) AppleWebKit/537.36 (KHTML, like Gecko) Chrome/124.0.0.0 Safari/537.36 Edg/124.0.0.0" etag="DrzxJ9Fp9J7firQnl3OX" version="24.3.1" type="github">
  <diagram name="Page-1" id="0xEGlJvhAFHPblCupgJv">
    <mxGraphModel dx="3116" dy="2253" grid="1" gridSize="10" guides="1" tooltips="1" connect="1" arrows="1" fold="1" page="1" pageScale="1" pageWidth="850" pageHeight="1100" math="0" shadow="0">
      <root>
        <mxCell id="0" />
        <mxCell id="1" parent="0" />
        <mxCell id="W4o_OMUIAl7zwOc1OcBB-66" value="Transaction" style="swimlane;childLayout=stackLayout;resizeParent=1;resizeParentMax=0;startSize=20;horizontal=0;horizontalStack=1;" vertex="1" parent="1">
          <mxGeometry x="-670" y="-110" width="510" height="820" as="geometry" />
        </mxCell>
        <mxCell id="W4o_OMUIAl7zwOc1OcBB-38" value="" style="edgeStyle=orthogonalEdgeStyle;html=1;verticalAlign=bottom;endArrow=open;endSize=8;strokeColor=#ff0000;rounded=0;entryX=0.5;entryY=0;entryDx=0;entryDy=0;exitX=0;exitY=0.5;exitDx=0;exitDy=0;" edge="1" source="W4o_OMUIAl7zwOc1OcBB-37" parent="W4o_OMUIAl7zwOc1OcBB-66" target="W4o_OMUIAl7zwOc1OcBB-39">
          <mxGeometry relative="1" as="geometry">
            <mxPoint x="432.5" y="286" as="targetPoint" />
            <mxPoint x="450" y="230" as="sourcePoint" />
            <Array as="points">
              <mxPoint x="333" y="230" />
              <mxPoint x="260" y="230" />
              <mxPoint x="260" y="160" />
              <mxPoint x="97" y="160" />
            </Array>
          </mxGeometry>
        </mxCell>
        <mxCell id="W4o_OMUIAl7zwOc1OcBB-40" value="no" style="edgeStyle=orthogonalEdgeStyle;html=1;align=left;verticalAlign=bottom;endArrow=open;endSize=8;strokeColor=#ff0000;rounded=0;entryX=1;entryY=0.5;entryDx=0;entryDy=0;exitX=1;exitY=0.5;exitDx=0;exitDy=0;" edge="1" source="W4o_OMUIAl7zwOc1OcBB-39" parent="W4o_OMUIAl7zwOc1OcBB-66" target="W4o_OMUIAl7zwOc1OcBB-37">
          <mxGeometry x="-1" relative="1" as="geometry">
            <mxPoint x="577.5" y="226" as="targetPoint" />
            <Array as="points">
              <mxPoint x="220" y="216" />
              <mxPoint x="220" y="266" />
              <mxPoint x="470" y="266" />
              <mxPoint x="470" y="226" />
            </Array>
          </mxGeometry>
        </mxCell>
        <mxCell id="W4o_OMUIAl7zwOc1OcBB-48" value="yes" style="edgeStyle=orthogonalEdgeStyle;html=1;align=left;verticalAlign=top;endArrow=open;endSize=8;strokeColor=#ff0000;rounded=0;exitX=0.5;exitY=1;exitDx=0;exitDy=0;entryX=0;entryY=0.5;entryDx=0;entryDy=0;" edge="1" source="W4o_OMUIAl7zwOc1OcBB-39" parent="W4o_OMUIAl7zwOc1OcBB-66" target="W4o_OMUIAl7zwOc1OcBB-43">
          <mxGeometry x="-1" relative="1" as="geometry">
            <mxPoint x="360" y="320" as="targetPoint" />
            <mxPoint x="217.07850574712654" y="296.00425287356325" as="sourcePoint" />
            <Array as="points">
              <mxPoint x="100" y="246" />
              <mxPoint x="100" y="320" />
            </Array>
          </mxGeometry>
        </mxCell>
        <mxCell id="W4o_OMUIAl7zwOc1OcBB-68" value="Banking System" style="swimlane;startSize=20;" vertex="1" parent="W4o_OMUIAl7zwOc1OcBB-66">
          <mxGeometry x="20" width="270" height="820" as="geometry" />
        </mxCell>
        <mxCell id="W4o_OMUIAl7zwOc1OcBB-39" value="Is the PIN correct?&amp;nbsp;" style="rhombus;whiteSpace=wrap;html=1;fontColor=#000000;fillColor=#ffffc0;strokeColor=#ff0000;" vertex="1" parent="W4o_OMUIAl7zwOc1OcBB-68">
          <mxGeometry x="30" y="186" width="95" height="60" as="geometry" />
        </mxCell>
        <mxCell id="W4o_OMUIAl7zwOc1OcBB-82" value="Are the sufficient funds?" style="rhombus;whiteSpace=wrap;html=1;fontColor=#000000;fillColor=#ffffc0;strokeColor=#ff0000;" vertex="1" parent="W4o_OMUIAl7zwOc1OcBB-68">
          <mxGeometry x="150" y="360" width="80" height="80" as="geometry" />
        </mxCell>
        <mxCell id="W4o_OMUIAl7zwOc1OcBB-77" value="Display Error" style="rounded=1;whiteSpace=wrap;html=1;arcSize=40;fontColor=#000000;fillColor=#ffffc0;strokeColor=#ff0000;" vertex="1" parent="W4o_OMUIAl7zwOc1OcBB-68">
          <mxGeometry x="10" y="380" width="105" height="40" as="geometry" />
        </mxCell>
        <mxCell id="W4o_OMUIAl7zwOc1OcBB-83" value="no" style="edgeStyle=orthogonalEdgeStyle;html=1;align=left;verticalAlign=bottom;endArrow=open;endSize=8;strokeColor=#ff0000;rounded=0;exitX=0;exitY=0.5;exitDx=0;exitDy=0;entryX=1;entryY=0.5;entryDx=0;entryDy=0;" edge="1" source="W4o_OMUIAl7zwOc1OcBB-82" parent="W4o_OMUIAl7zwOc1OcBB-68" target="W4o_OMUIAl7zwOc1OcBB-77">
          <mxGeometry x="-1" relative="1" as="geometry">
            <mxPoint x="40" y="430" as="targetPoint" />
            <mxPoint x="140" y="440" as="sourcePoint" />
            <Array as="points">
              <mxPoint x="150" y="400" />
              <mxPoint x="150" y="400" />
            </Array>
          </mxGeometry>
        </mxCell>
        <mxCell id="W4o_OMUIAl7zwOc1OcBB-88" value="transfer money" style="rounded=1;whiteSpace=wrap;html=1;arcSize=40;fontColor=#000000;fillColor=#ffffc0;strokeColor=#ff0000;" vertex="1" parent="W4o_OMUIAl7zwOc1OcBB-68">
          <mxGeometry x="130" y="580" width="120" height="40" as="geometry" />
        </mxCell>
        <mxCell id="W4o_OMUIAl7zwOc1OcBB-84" value="yes" style="edgeStyle=orthogonalEdgeStyle;html=1;align=left;verticalAlign=top;endArrow=open;endSize=8;strokeColor=#ff0000;rounded=0;entryX=0.5;entryY=0;entryDx=0;entryDy=0;" edge="1" source="W4o_OMUIAl7zwOc1OcBB-82" parent="W4o_OMUIAl7zwOc1OcBB-68" target="W4o_OMUIAl7zwOc1OcBB-97">
          <mxGeometry x="-1" relative="1" as="geometry">
            <mxPoint x="200" y="510" as="targetPoint" />
            <Array as="points">
              <mxPoint x="190" y="520" />
            </Array>
          </mxGeometry>
        </mxCell>
        <mxCell id="W4o_OMUIAl7zwOc1OcBB-91" value="" style="edgeStyle=orthogonalEdgeStyle;html=1;verticalAlign=bottom;endArrow=open;endSize=8;strokeColor=#ff0000;rounded=0;entryX=0;entryY=0.5;entryDx=0;entryDy=0;" edge="1" parent="W4o_OMUIAl7zwOc1OcBB-68" target="W4o_OMUIAl7zwOc1OcBB-42">
          <mxGeometry relative="1" as="geometry">
            <mxPoint x="62.08000000000004" y="869.5" as="targetPoint" />
            <mxPoint x="60" y="420" as="sourcePoint" />
            <Array as="points">
              <mxPoint x="62" y="785" />
            </Array>
          </mxGeometry>
        </mxCell>
        <mxCell id="W4o_OMUIAl7zwOc1OcBB-102" value="" style="edgeStyle=orthogonalEdgeStyle;rounded=0;orthogonalLoop=1;jettySize=auto;html=1;" edge="1" parent="W4o_OMUIAl7zwOc1OcBB-68" source="W4o_OMUIAl7zwOc1OcBB-97" target="W4o_OMUIAl7zwOc1OcBB-88">
          <mxGeometry relative="1" as="geometry" />
        </mxCell>
        <mxCell id="W4o_OMUIAl7zwOc1OcBB-97" value="" style="shape=collate;html=1;" vertex="1" parent="W4o_OMUIAl7zwOc1OcBB-68">
          <mxGeometry x="170" y="520" width="40" height="30" as="geometry" />
        </mxCell>
        <mxCell id="W4o_OMUIAl7zwOc1OcBB-106" value="Print Reciept" style="rounded=1;whiteSpace=wrap;html=1;arcSize=40;fontColor=#000000;fillColor=#ffffc0;strokeColor=#ff0000;" vertex="1" parent="W4o_OMUIAl7zwOc1OcBB-68">
          <mxGeometry x="130" y="650" width="120" height="40" as="geometry" />
        </mxCell>
        <mxCell id="W4o_OMUIAl7zwOc1OcBB-80" value="" style="edgeStyle=orthogonalEdgeStyle;html=1;verticalAlign=bottom;endArrow=open;endSize=8;strokeColor=#ff0000;rounded=0;exitX=0;exitY=0.5;exitDx=0;exitDy=0;" edge="1" source="W4o_OMUIAl7zwOc1OcBB-79" parent="W4o_OMUIAl7zwOc1OcBB-66">
          <mxGeometry relative="1" as="geometry">
            <mxPoint x="250" y="400" as="targetPoint" />
            <mxPoint x="370" y="400" as="sourcePoint" />
            <Array as="points">
              <mxPoint x="320" y="400" />
              <mxPoint x="320" y="400" />
            </Array>
          </mxGeometry>
        </mxCell>
        <mxCell id="W4o_OMUIAl7zwOc1OcBB-69" value="User" style="swimlane;startSize=20;" vertex="1" parent="W4o_OMUIAl7zwOc1OcBB-66">
          <mxGeometry x="290" width="220" height="820" as="geometry" />
        </mxCell>
        <mxCell id="W4o_OMUIAl7zwOc1OcBB-32" value="" style="ellipse;html=1;shape=startState;fillColor=#000000;strokeColor=#ff0000;" vertex="1" parent="W4o_OMUIAl7zwOc1OcBB-69">
          <mxGeometry x="87.5" y="40" width="30" height="30" as="geometry" />
        </mxCell>
        <mxCell id="W4o_OMUIAl7zwOc1OcBB-33" value="" style="edgeStyle=orthogonalEdgeStyle;html=1;verticalAlign=bottom;endArrow=open;endSize=8;strokeColor=#ff0000;rounded=0;" edge="1" source="W4o_OMUIAl7zwOc1OcBB-32" parent="W4o_OMUIAl7zwOc1OcBB-69">
          <mxGeometry relative="1" as="geometry">
            <mxPoint x="102.5" y="130" as="targetPoint" />
          </mxGeometry>
        </mxCell>
        <mxCell id="W4o_OMUIAl7zwOc1OcBB-35" value="Insert ATM card" style="rounded=1;whiteSpace=wrap;html=1;arcSize=40;fontColor=#000000;fillColor=#ffffc0;strokeColor=#ff0000;" vertex="1" parent="W4o_OMUIAl7zwOc1OcBB-69">
          <mxGeometry x="42.5" y="130" width="120" height="40" as="geometry" />
        </mxCell>
        <mxCell id="W4o_OMUIAl7zwOc1OcBB-36" value="" style="edgeStyle=orthogonalEdgeStyle;html=1;verticalAlign=bottom;endArrow=open;endSize=8;strokeColor=#ff0000;rounded=0;entryX=0.5;entryY=0;entryDx=0;entryDy=0;" edge="1" source="W4o_OMUIAl7zwOc1OcBB-35" parent="W4o_OMUIAl7zwOc1OcBB-69" target="W4o_OMUIAl7zwOc1OcBB-37">
          <mxGeometry relative="1" as="geometry">
            <mxPoint x="102.5" y="230" as="targetPoint" />
          </mxGeometry>
        </mxCell>
        <mxCell id="W4o_OMUIAl7zwOc1OcBB-37" value="Enter PIN" style="rounded=1;whiteSpace=wrap;html=1;arcSize=40;fontColor=#000000;fillColor=#ffffc0;strokeColor=#ff0000;" vertex="1" parent="W4o_OMUIAl7zwOc1OcBB-69">
          <mxGeometry x="42.5" y="206" width="120" height="40" as="geometry" />
        </mxCell>
        <mxCell id="W4o_OMUIAl7zwOc1OcBB-43" value="select destination account" style="rounded=1;whiteSpace=wrap;html=1;arcSize=40;fontColor=#000000;fillColor=#ffffc0;strokeColor=#ff0000;" vertex="1" parent="W4o_OMUIAl7zwOc1OcBB-69">
          <mxGeometry x="42.5" y="300" width="120" height="40" as="geometry" />
        </mxCell>
        <mxCell id="W4o_OMUIAl7zwOc1OcBB-78" value="" style="edgeStyle=orthogonalEdgeStyle;html=1;verticalAlign=bottom;endArrow=open;endSize=8;strokeColor=#ff0000;rounded=0;entryX=0.5;entryY=0;entryDx=0;entryDy=0;" edge="1" parent="W4o_OMUIAl7zwOc1OcBB-69" target="W4o_OMUIAl7zwOc1OcBB-79">
          <mxGeometry relative="1" as="geometry">
            <mxPoint x="102.07999999999998" y="470" as="targetPoint" />
            <mxPoint x="102.07999999999998" y="340" as="sourcePoint" />
            <Array as="points" />
          </mxGeometry>
        </mxCell>
        <mxCell id="W4o_OMUIAl7zwOc1OcBB-79" value="Enter desired amount of money" style="rounded=1;whiteSpace=wrap;html=1;arcSize=40;fontColor=#000000;fillColor=#ffffc0;strokeColor=#ff0000;" vertex="1" parent="W4o_OMUIAl7zwOc1OcBB-69">
          <mxGeometry x="42.5" y="380" width="120" height="40" as="geometry" />
        </mxCell>
        <mxCell id="W4o_OMUIAl7zwOc1OcBB-42" value="" style="ellipse;html=1;shape=endState;fillColor=#000000;strokeColor=#ff0000;" vertex="1" parent="W4o_OMUIAl7zwOc1OcBB-69">
          <mxGeometry x="90" y="770" width="30" height="30" as="geometry" />
        </mxCell>
        <mxCell id="W4o_OMUIAl7zwOc1OcBB-103" value="&lt;span style=&quot;font-size: 10px;&quot;&gt;Does the user need a receipt?&lt;/span&gt;" style="rhombus;whiteSpace=wrap;html=1;fontColor=#000000;fillColor=#ffffc0;strokeColor=#ff0000;" vertex="1" parent="W4o_OMUIAl7zwOc1OcBB-69">
          <mxGeometry x="72.5" y="555" width="90" height="90" as="geometry" />
        </mxCell>
        <mxCell id="W4o_OMUIAl7zwOc1OcBB-104" value="no" style="edgeStyle=orthogonalEdgeStyle;html=1;align=left;verticalAlign=bottom;endArrow=open;endSize=8;strokeColor=#ff0000;rounded=0;entryX=1;entryY=0.5;entryDx=0;entryDy=0;exitX=1;exitY=0.5;exitDx=0;exitDy=0;" edge="1" source="W4o_OMUIAl7zwOc1OcBB-103" parent="W4o_OMUIAl7zwOc1OcBB-69" target="W4o_OMUIAl7zwOc1OcBB-42">
          <mxGeometry x="-1" relative="1" as="geometry">
            <mxPoint x="129.99999999999994" y="785.1199999999999" as="targetPoint" />
            <mxPoint x="168.68" y="600" as="sourcePoint" />
            <Array as="points">
              <mxPoint x="200" y="600" />
              <mxPoint x="200" y="785" />
            </Array>
          </mxGeometry>
        </mxCell>
        <mxCell id="W4o_OMUIAl7zwOc1OcBB-95" value="" style="edgeStyle=orthogonalEdgeStyle;html=1;verticalAlign=bottom;endArrow=open;endSize=8;strokeColor=#ff0000;rounded=0;exitX=1;exitY=0.5;exitDx=0;exitDy=0;entryX=0;entryY=0.5;entryDx=0;entryDy=0;" edge="1" source="W4o_OMUIAl7zwOc1OcBB-88" parent="W4o_OMUIAl7zwOc1OcBB-66" target="W4o_OMUIAl7zwOc1OcBB-103">
          <mxGeometry relative="1" as="geometry">
            <mxPoint x="480" y="600" as="targetPoint" />
            <mxPoint x="452.5" y="520" as="sourcePoint" />
            <Array as="points">
              <mxPoint x="483" y="600" />
            </Array>
          </mxGeometry>
        </mxCell>
        <mxCell id="W4o_OMUIAl7zwOc1OcBB-107" value="" style="edgeStyle=orthogonalEdgeStyle;html=1;verticalAlign=bottom;endArrow=open;endSize=8;strokeColor=#ff0000;rounded=0;entryX=0.5;entryY=0;entryDx=0;entryDy=0;" edge="1" source="W4o_OMUIAl7zwOc1OcBB-106" parent="W4o_OMUIAl7zwOc1OcBB-66" target="W4o_OMUIAl7zwOc1OcBB-42">
          <mxGeometry relative="1" as="geometry">
            <mxPoint x="340" y="750" as="targetPoint" />
            <Array as="points">
              <mxPoint x="340" y="740" />
              <mxPoint x="515" y="740" />
            </Array>
          </mxGeometry>
        </mxCell>
        <mxCell id="W4o_OMUIAl7zwOc1OcBB-105" value="yes" style="edgeStyle=orthogonalEdgeStyle;html=1;align=left;verticalAlign=top;endArrow=open;endSize=8;strokeColor=#ff0000;rounded=0;entryX=1.008;entryY=0.558;entryDx=0;entryDy=0;exitX=0.5;exitY=1;exitDx=0;exitDy=0;entryPerimeter=0;" edge="1" source="W4o_OMUIAl7zwOc1OcBB-103" parent="W4o_OMUIAl7zwOc1OcBB-66" target="W4o_OMUIAl7zwOc1OcBB-106">
          <mxGeometry x="-1" relative="1" as="geometry">
            <mxPoint x="397.5" y="673.5" as="targetPoint" />
            <mxPoint x="527.5" y="646" as="sourcePoint" />
            <Array as="points">
              <mxPoint x="408" y="672" />
              <mxPoint x="408" y="672" />
            </Array>
          </mxGeometry>
        </mxCell>
      </root>
    </mxGraphModel>
  </diagram>
</mxfile>
